PathFileType	4	(X/Y/Z)	/home/abdul/Desktop/myosuite/custom_workspace/IK/output/S13_12_2.trc
DataRate	CameraRate	NumFrames	NumMarkers	Units	OrigDataRate	OrigDataStartFrame	OrigNumFrames
200.0	200.0	22	3	mm	200.0	1	1403
Frame#	Time	V_Shoulder			V_Elbow			V_Wrist		
		X1	Y1	Z1	X2	Y2	Z2	X3	Y3	Z3

1	0.0	-92.99396793774277	613.5088195183218	326.20839775230655	-242.60819258367846	534.1364740900979	7.719259277141022	-268.08750957136687	266.4022050392049	38.63128533111049
2	0.005	-92.99298974718386	613.5039231727987	326.2083117746011	-242.60840568152048	534.1382571981851	7.713432746782548	-268.0900518832371	266.4051260302599	38.63414408280916
3	0.01	-92.99200131629622	613.4991505817919	326.20823906640754	-242.60863367601587	534.1402117344298	7.707477128922916	-268.0921219821367	266.4082946328076	38.63746014458749
4	0.015	-92.99100331475945	613.4945179859586	326.2081801254788	-242.60886395230077	534.1423343482554	7.701392450602607	-268.0936910051758	266.41170971202496	38.64123728465719
5	0.02	-92.98999640138186	613.4900416563215	326.20813539890605	-242.6090828421796	534.1446207429498	7.6951787021161495	-268.09473078215854	266.4153690735288	38.64547740184801
6	0.025	-92.98898122202566	613.485737841099	326.2081052782824	-242.60927562583106	534.1470656494124	7.688835837584975	-268.0952139830883	266.4192694212994	38.650180424116975
7	0.03	-92.98795840777889	613.4816227114861	326.20809009485174	-242.60942653871498	534.1496628030435	7.682363777240709	-268.09511426925906	266.4234063181258	38.655344210328444
8	0.035	-92.98692857340014	613.4777123065778	326.2080901146583	-242.6095187839311	534.1524049240315	7.6757624115254295	-268.09440644749156	266.4277741488572	38.66096445587401
9	0.04	-92.98589231606229	613.4740224776257	326.20810553371695	-242.6095345502668	534.1552837012912	7.669031607104738	-268.0930666270409	266.43236608675	38.66703460271278
10	0.045	-92.98485021441947	613.470568831825	326.208136473223	-242.60945503615494	534.158289780299	7.662171214877554	-268.0910723786695	266.43717406319723	38.673545754422896
11	0.05	-92.98380282801945	613.4673666758267	326.20818297481975	-242.60926047974664	534.1614127550656	7.655181080053835	-268.08840289534965	266.44218874112926	38.680486596863474
12	0.055	-92.98275069708366	613.4644309591696	326.20824499594556	-242.60893019528507	534.1646411644743	7.648061054357669	-268.08503915402775	266.44739949237	38.68784332505257
13	0.06	-92.98169434267358	613.4617762178254	326.20832240527915	-242.60844261594633	534.1679624932103	7.640811010398786	-268.08096407785143	266.4527943792309	38.69559957687127
14	0.065	-92.98063426726132	613.4594165180501	326.20841497830503	-242.60777534329165	534.1713631774865	7.633430858240415	-268.07616269823467	266.45836014062115	38.70373637420601
15	0.07	-92.9795709557199	613.4573654007295	326.2085223930196	-242.6069052034532	534.1748286157676	7.625920564175573	-268.07062231610405	266.46408218294425	38.712232072141326
16	0.075	-92.97850487674646	613.4556358264057	326.20864422579876	-242.60580831015082	534.1783431846736	7.618280171707729	-268.0643326616444	266.4699445760465	38.72106231681252
17	0.08	-92.97743648472984	613.4542401211667	326.2087799474502	-242.6044601346108	534.181890260232	7.610509824715185	-268.05728605183583	266.4759300544724	38.73020001252297
18	0.085	-92.97636622207051	613.4531899235755	326.20892891946966	-242.60283558243287	534.1854522446326	7.602609792761477	-268.04947754504843	266.4820200242748	38.739615298722896
19	0.09	-92.97529452195984	613.4524961328126	326.2090903905251	-242.60090907742085	534.189010598619	7.594580498496992	-268.0409050919396	266.4881945756109	38.74927553743614
20	0.095	-92.97422181162199	613.4521688581998	326.2092634931883	-242.59865465236484	534.1925458796306	7.586422547079738	-268.03156968187636	266.4944325013497	38.759145311708494
21	0.1	-92.97314851601969	613.4522173702636	326.20944724093783	-242.59604604673262	534.196037785795	7.578136757525833	-268.02147548408675	266.5007113218967	38.76918643563465
22	0.105	-92.97207506202226	613.4526500534984	326.2096405254531	-242.5930568111953	534.1994652058422	7.569724195883106	-268.01062998272545	266.5070073164286	38.779357976502176
